{
	"patcher" : 	{
		"fileversion" : 1,
		"appversion" : 		{
			"major" : 8,
			"minor" : 1,
			"revision" : 10,
			"architecture" : "x64",
			"modernui" : 1
		}
,
		"classnamespace" : "dsp.gen",
		"rect" : [ 666.0, 189.0, 849.0, 796.0 ],
		"bglocked" : 0,
		"openinpresentation" : 0,
		"default_fontsize" : 12.0,
		"default_fontface" : 0,
		"default_fontname" : "Arial",
		"gridonopen" : 1,
		"gridsize" : [ 15.0, 15.0 ],
		"gridsnaponopen" : 1,
		"objectsnaponopen" : 1,
		"statusbarvisible" : 2,
		"toolbarvisible" : 1,
		"lefttoolbarpinned" : 0,
		"toptoolbarpinned" : 0,
		"righttoolbarpinned" : 0,
		"bottomtoolbarpinned" : 0,
		"toolbars_unpinned_last_save" : 0,
		"tallnewobj" : 0,
		"boxanimatetime" : 200,
		"enablehscroll" : 1,
		"enablevscroll" : 1,
		"devicewidth" : 0.0,
		"description" : "",
		"digest" : "",
		"tags" : "",
		"style" : "",
		"subpatcher_template" : "",
		"assistshowspatchername" : 0,
		"boxes" : [ 			{
				"box" : 				{
					"id" : "obj-1",
					"maxclass" : "newobj",
					"numinlets" : 0,
					"numoutlets" : 1,
					"outlettype" : [ "" ],
					"patching_rect" : [ 751.0, 2.0, 57.0, 22.0 ],
					"text" : "in 4 env1"
				}

			}
, 			{
				"box" : 				{
					"id" : "obj-9",
					"maxclass" : "newobj",
					"numinlets" : 1,
					"numoutlets" : 0,
					"patching_rect" : [ 69.0, 860.333336114883423, 35.0, 22.0 ],
					"text" : "out 1"
				}

			}
, 			{
				"box" : 				{
					"id" : "obj-8",
					"maxclass" : "newobj",
					"numinlets" : 0,
					"numoutlets" : 1,
					"outlettype" : [ "" ],
					"patching_rect" : [ 523.666666666666742, 2.0, 61.0, 22.0 ],
					"text" : "in 3 mod2"
				}

			}
, 			{
				"box" : 				{
					"id" : "obj-7",
					"maxclass" : "newobj",
					"numinlets" : 0,
					"numoutlets" : 1,
					"outlettype" : [ "" ],
					"patching_rect" : [ 296.333333333333371, 2.0, 61.0, 22.0 ],
					"text" : "in 2 mod1"
				}

			}
, 			{
				"box" : 				{
					"id" : "obj-6",
					"maxclass" : "newobj",
					"numinlets" : 0,
					"numoutlets" : 1,
					"outlettype" : [ "" ],
					"patching_rect" : [ 69.0, 2.0, 65.0, 22.0 ],
					"text" : "in 1 carrier"
				}

			}
, 			{
				"box" : 				{
					"code" : "//FM+STAT\r\n\r\nlp_1p(x,lDamp){\r\n\tHistory h_Lp1(0);\r\n\tlowpass1 = mix(x,h_Lp1,lDamp);\r\n\th_Lp1Next = lowpass1;\r\n\th_Lp1 = h_Lp1Next;\r\n\t\r\n\treturn lowpass1;\r\n}\r\n\r\nfbam(x,fbAmt){\r\n\tHistory h_Fbam(0);\r\n\tfb = x+(x*(min(fbAmt,0.9)*h_Fbam));\r\n\th_fbamNext = fixdenorm(fb);\r\n\th_Fbam = h_fbamNext;\r\n\t\r\n\treturn fb;\r\n}\r\n\r\n\r\nParam p_fbfm,p_fbam,p_vol,p_tone,p_fin;\r\n\r\nBuffer b_osc(\"b_osc\");\r\n\r\nHistory h_1(0);\r\n\r\ngain = 1/sqrt(2);\r\n\r\n//phasors\r\n\r\nphsrC = phasor(in1);\r\nphsr1 = phasor(in2)+phasor(p_fin);\r\nphsr2 = phasor(in3);\r\n\r\nfbAmt = (p_vol>=0 && p_vol<0.7) ? 0 : min(scale(p_vol,0.7,1,0,0.6,2.6),0.6);\r\nfb1 = h_1*scale(p_fbfm,0,1,0,0.2,1);\r\n\r\nmod1 = wave(b_osc,phsr1+fb1,index=\"phase\");\r\nenv1 = mod1*in4;\r\n\r\nmod2 = wave(b_osc,phsr2,index=\"phase\");\r\nvol2 = fbam(mod2,fbAmt)*p_vol;\r\n\r\n\r\nmodSum = env1+vol2;\r\ndc_C = dcblock(wave(b_osc,(phsrC+lp_1p(modSum,1-p_tone)),index=\"phase\"));\r\n\r\nout1 = dc_C*gain;\r\n\r\nh_1Next = fixdenorm(mod1);\r\nh_1 = h_1Next;\r\n",
					"fontface" : 0,
					"fontname" : "<Monospaced>",
					"fontsize" : 12.0,
					"id" : "obj-5",
					"maxclass" : "codebox",
					"numinlets" : 4,
					"numoutlets" : 1,
					"outlettype" : [ "" ],
					"patching_rect" : [ 69.0, 35.0, 701.0, 818.333336114883423 ]
				}

			}
 ],
		"lines" : [ 			{
				"patchline" : 				{
					"destination" : [ "obj-5", 3 ],
					"source" : [ "obj-1", 0 ]
				}

			}
, 			{
				"patchline" : 				{
					"destination" : [ "obj-9", 0 ],
					"source" : [ "obj-5", 0 ]
				}

			}
, 			{
				"patchline" : 				{
					"destination" : [ "obj-5", 0 ],
					"source" : [ "obj-6", 0 ]
				}

			}
, 			{
				"patchline" : 				{
					"destination" : [ "obj-5", 1 ],
					"source" : [ "obj-7", 0 ]
				}

			}
, 			{
				"patchline" : 				{
					"destination" : [ "obj-5", 2 ],
					"source" : [ "obj-8", 0 ]
				}

			}
 ],
		"autosave" : 0
	}

}
